<?xml version="1.0" standalone="no"?>
<!DOCTYPE svg PUBLIC "-//W3C//DTD SVG 20010904//EN"
 "http://www.w3.org/TR/2001/REC-SVG-20010904/DTD/svg10.dtd">
<svg version="1.0" xmlns="http://www.w3.org/2000/svg"
 width="680.000000pt" height="680.000000pt" viewBox="0 0 680.000000 680.000000"
 preserveAspectRatio="xMidYMid meet">
<metadata>
Created by potrace 1.14, written by Peter Selinger 2001-2017
</metadata>
<g transform="translate(0.000000,680.000000) scale(0.100000,-0.100000)"
fill="#000000" stroke="none">
<path d="M3195 6339 c-84 -9 -231 -33 -300 -49 -79 -18 -284 -89 -345 -120
-239 -121 -573 -365 -829 -604 -426 -400 -621 -630 -735 -868 -159 -332 -112
-673 118 -846 71 -54 131 -83 264 -127 62 -20 121 -46 131 -56 17 -19 19 -19
67 3 l49 23 916 3 915 3 37 -28 c42 -32 92 -120 55 -96 -10 6 -148 14 -148 8
0 0 13 -37 29 -81 24 -66 30 -98 32 -189 5 -145 0 -1680 -5 -1674 -2 2 -7 87
-11 189 -4 102 -9 193 -11 204 -4 24 -14 34 -14 14 0 -9 -8 -15 -17 -14 -11 0
-18 -6 -18 -16 0 -10 -11 -28 -25 -41 -30 -29 -90 -26 -90 4 0 17 -3 17 -20 7
-14 -9 -16 -14 -7 -20 8 -5 5 -8 -8 -8 -11 0 -30 -7 -42 -15 -17 -12 -23 -12
-27 -2 -4 6 -4 2 -2 -11 4 -24 -18 -32 -28 -9 -3 9 -8 8 -18 -4 -14 -16 -48
-33 -60 -31 -5 1 -8 -3 -8 -9 0 -19 -52 -79 -69 -79 -14 0 -14 -2 -1 -10 12
-8 11 -10 -7 -10 -22 0 -36 -13 -39 -38 -4 -21 -14 -27 -14 -8 0 10 -5 14 -11
11 -6 -4 -8 -13 -5 -21 4 -10 -3 -14 -24 -14 -16 0 -32 -4 -35 -10 -4 -6 3 -9
16 -7 12 1 24 -3 26 -9 2 -7 -8 -10 -32 -7 -19 2 -35 0 -35 -4 0 -5 -15 -14
-32 -22 -18 -8 -36 -19 -39 -24 -4 -5 -27 -10 -52 -11 -25 0 -43 -4 -40 -8 2
-5 -5 -8 -16 -8 -11 0 -23 5 -26 10 -4 6 -10 8 -14 5 -5 -2 -66 4 -137 14 -82
12 -135 16 -146 10 -18 -10 -34 -102 -24 -142 7 -31 42 -70 55 -63 5 4 12 2
16 -4 4 -6 -7 -10 -27 -11 -30 0 -31 -1 -10 -9 12 -5 22 -12 22 -15 0 -4 -4
-4 -9 0 -5 3 -13 0 -16 -6 -5 -6 -21 -8 -41 -4 -27 5 -34 3 -34 -10 0 -8 -9
-23 -19 -32 -11 -9 -18 -20 -16 -23 2 -4 -9 -7 -25 -8 -19 0 -35 7 -43 19 -8
10 -17 16 -20 12 -4 -3 1 -15 10 -25 16 -18 16 -18 0 -12 -12 4 -17 1 -17 -10
0 -9 -10 -27 -23 -39 -12 -13 -24 -36 -26 -53 -4 -35 -10 -46 -21 -39 -4 3
-13 -2 -20 -10 -7 -8 -19 -15 -26 -15 -8 0 -14 -7 -14 -15 0 -9 -7 -18 -15
-21 -8 -4 -15 -12 -15 -20 0 -16 -16 -19 -25 -5 -3 6 -17 6 -34 1 -16 -4 -32
-5 -36 -2 -4 4 -5 2 -3 -3 2 -6 -8 -21 -21 -34 -19 -19 -21 -25 -10 -32 10 -6
8 -9 -9 -9 -12 0 -25 -6 -28 -14 -3 -8 -13 -12 -26 -8 -14 3 -19 1 -14 -6 4
-7 3 -12 -3 -12 -5 0 -12 6 -14 13 -4 9 -6 9 -6 0 -1 -7 -9 -13 -20 -13 -12 0
-20 -9 -24 -28 -12 -60 -114 -57 -188 6 -39 33 -41 34 -34 11 32 -109 102
-195 190 -235 29 -13 180 -47 365 -84 173 -33 518 -102 765 -152 611 -123 709
-140 772 -133 28 3 121 21 205 40 151 34 681 149 1138 246 264 56 301 72 356
152 67 97 65 63 62 1332 l-3 1140 -28 75 c-16 41 -31 83 -34 92 -13 41 10 70
155 194 198 169 207 179 221 211 6 16 43 61 80 100 76 79 114 148 130 237 44
239 -42 489 -288 841 -33 49 -61 92 -61 97 0 13 -85 120 -127 160 -37 36 -104
78 -123 78 -6 0 -5 -8 2 -20 48 -76 -101 41 -175 138 -48 63 -68 83 -191 186
-49 42 -95 76 -102 76 -7 0 -36 22 -66 50 -55 52 -68 59 -68 38 -1 -8 -6 -6
-14 5 -7 9 -18 17 -24 17 -6 0 -9 6 -6 14 3 8 0 17 -6 21 -8 5 -11 -1 -10 -16
3 -37 0 -45 -10 -29 -6 9 -10 10 -10 3 0 -19 21 -27 32 -12 7 10 8 9 3 -6 -4
-14 2 -27 27 -48 l33 -29 -34 19 c-66 35 -178 155 -212 226 -18 41 -37 67 -46
67 -9 0 -59 27 -112 59 -119 73 -153 90 -280 141 -236 94 -503 128 -766 99z
m-52 -73 c24 0 37 -5 37 -14 0 -7 4 -10 10 -7 12 7 52 -13 63 -32 5 -7 12 -11
16 -8 5 2 30 -16 56 -40 26 -25 50 -45 54 -45 18 0 79 -72 74 -88 -3 -14 9
-23 54 -42 240 -98 322 -329 175 -492 -52 -58 -140 -112 -230 -142 -301 -99
-597 -60 -756 100 -24 24 -36 32 -31 19 4 -11 7 -29 7 -39 -1 -23 24 -81 50
-115 11 -14 16 -32 12 -43 -4 -14 0 -21 16 -25 18 -5 20 -10 14 -37 -4 -17 -7
-37 -7 -43 0 -7 -5 -13 -10 -13 -5 0 -7 -7 -3 -15 3 -8 2 -15 -3 -15 -5 0 -7
-10 -7 -22 3 -34 -3 -39 -26 -27 -19 10 -20 9 -16 -13 2 -13 -1 -29 -8 -36
-18 -17 -25 -15 -22 6 5 27 -26 20 -32 -8 -3 -14 -12 -25 -20 -25 -8 0 -15 -9
-15 -20 0 -11 -7 -20 -15 -20 -8 0 -19 -6 -23 -13 -5 -7 -17 -10 -27 -7 -10 3
-21 1 -25 -5 -3 -6 -11 -8 -16 -5 -5 4 -9 -1 -9 -10 0 -12 -7 -15 -27 -13 -16
2 -33 -3 -40 -12 -11 -13 -12 -13 -13 3 0 20 -16 23 -27 4 -4 -7 -30 -21 -58
-32 -27 -10 -53 -23 -57 -29 -5 -7 -8 -4 -8 7 0 9 -4 17 -10 17 -5 0 -7 -6 -4
-14 3 -8 1 -17 -5 -21 -6 -3 -11 1 -11 9 0 12 -6 13 -31 6 -18 -5 -36 -7 -42
-3 -5 3 -13 -1 -18 -8 -7 -11 -9 -11 -9 3 0 9 6 19 13 22 6 3 -1 3 -18 -1 -29
-5 -29 -5 -10 10 20 16 19 16 -12 27 -38 14 -50 38 -26 55 10 8 14 17 10 21
-4 5 -12 2 -16 -5 -17 -27 -31 1 -31 60 0 33 -6 81 -12 107 l-13 47 -5 -80
c-10 -147 -96 -313 -230 -445 -71 -70 -194 -146 -262 -162 -85 -19 -172 16
-196 79 -5 15 -13 37 -17 48 -7 19 -8 18 -14 -5 -4 -14 -14 -26 -23 -28 -16
-3 -18 1 -21 86 0 23 -6 42 -12 42 -5 0 -4 4 4 9 9 6 14 24 13 48 -1 28 6 49
23 73 13 18 22 37 19 42 -3 5 5 26 18 46 13 20 37 64 53 97 17 33 33 62 38 63
4 2 7 10 7 18 0 8 9 14 19 14 27 0 51 10 51 22 0 6 -9 8 -19 5 -14 -3 -18 -1
-14 9 3 8 10 14 15 14 13 0 108 102 108 116 0 5 13 23 30 39 16 15 27 32 24
37 -3 5 -1 7 4 6 5 -2 23 11 39 27 16 17 49 47 74 67 24 20 69 60 99 88 30 27
65 53 77 56 11 3 23 13 25 22 3 10 18 24 34 32 16 8 40 22 53 32 13 10 27 15
32 12 5 -3 9 0 9 6 0 7 7 10 15 6 8 -3 15 -1 15 5 0 13 26 39 39 39 15 0 60
48 52 56 -3 4 0 5 7 3 13 -4 34 12 150 119 26 24 70 54 99 67 28 13 54 33 57
43 5 14 13 18 32 14 22 -4 24 -2 19 20 -6 21 -2 27 27 38 18 7 49 19 68 28 19
9 40 17 45 17 10 1 20 5 94 36 24 11 52 19 62 19 11 0 19 3 19 8 0 4 12 8 28
9 15 0 47 6 72 11 25 6 63 8 85 6 31 -4 37 -3 25 6 -12 9 -10 10 10 4 14 -4
42 -8 63 -8z m1595 -937 c14 -5 22 -12 20 -15 -10 -10 -63 -11 -82 -1 -15 8
-18 6 -13 -7 5 -13 2 -15 -17 -10 -18 4 -26 1 -30 -14 -4 -11 -14 -23 -22 -26
-8 -3 -12 -10 -9 -16 9 -14 -8 -13 -23 2 -18 18 -15 1 5 -29 13 -19 14 -28 5
-31 -6 -2 -12 -13 -12 -24 0 -18 -2 -19 -17 -7 -17 12 -17 12 -1 -6 15 -16 16
-21 4 -34 -15 -17 -5 -61 14 -61 5 0 10 -4 10 -9 0 -5 -9 -7 -20 -4 -11 3 -20
0 -20 -6 0 -6 4 -11 8 -11 5 0 9 -14 9 -31 0 -17 6 -35 14 -40 8 -5 10 -9 4
-9 -5 0 -10 -21 -9 -47 1 -46 3 -57 25 -112 17 -42 2 -34 -39 21 -77 102 -122
220 -122 317 0 97 55 189 132 218 35 13 142 8 186 -8z m-138 -199 c0 -5 -4
-10 -10 -10 -5 0 -10 5 -10 10 0 6 5 10 10 10 6 0 10 -4 10 -10z m-133 -1701
c-5 -18 -2 -20 19 -15 13 4 24 3 24 0 0 -7 -60 -105 -70 -114 -3 -3 -13 -20
-24 -38 -26 -48 -8 -63 39 -31 19 13 35 27 35 30 0 4 7 9 15 13 18 7 20 -8 3
-26 -7 -7 -42 -47 -77 -88 -83 -97 -189 -206 -222 -231 -27 -19 -27 -19 -83 6
-60 27 -60 26 -20 80 12 17 57 89 99 160 90 152 151 235 174 235 9 1 32 9 51
20 44 24 43 24 37 -1z m-1390 -1561 c-3 -8 -6 -5 -6 6 -1 11 2 17 5 13 3 -3 4
-12 1 -19z m-654 -445 c-7 -2 -21 -2 -30 0 -10 3 -4 5 12 5 17 0 24 -2 18 -5z
m-243 -133 c0 -5 -2 -10 -4 -10 -3 0 -8 5 -11 10 -3 6 -1 10 4 10 6 0 11 -4
11 -10z m-30 -6 c0 -2 -9 -8 -20 -14 -15 -8 -18 -8 -14 3 4 11 34 21 34 11z
m-50 -53 c0 -6 -4 -12 -8 -15 -5 -3 -9 1 -9 9 0 8 4 15 9 15 4 0 8 -4 8 -9z"/>
<path d="M2162 5779 c2 -6 8 -10 13 -10 5 0 11 4 13 10 2 6 -4 11 -13 11 -9 0
-15 -5 -13 -11z"/>
<path d="M2105 5720 c4 -6 11 -8 16 -5 14 9 11 15 -7 15 -8 0 -12 -5 -9 -10z"/>
<path d="M1970 5660 c0 -5 7 -10 16 -10 8 0 12 5 9 10 -3 6 -10 10 -16 10 -5
0 -9 -4 -9 -10z"/>
<path d="M2716 5202 c-3 -6 -1 -14 5 -17 15 -10 25 3 12 16 -7 7 -13 7 -17 1z"/>
<path d="M2660 5149 c0 -5 5 -7 10 -4 6 3 10 8 10 11 0 2 -4 4 -10 4 -5 0 -10
-5 -10 -11z"/>
<path d="M2690 5150 c0 -5 5 -10 10 -10 6 0 10 5 10 10 0 6 -4 10 -10 10 -5 0
-10 -4 -10 -10z"/>
<path d="M2610 5080 c0 -5 5 -10 10 -10 6 0 10 5 10 10 0 6 -4 10 -10 10 -5 0
-10 -4 -10 -10z"/>
<path d="M2508 4983 c7 -3 16 -2 19 1 4 3 -2 6 -13 5 -11 0 -14 -3 -6 -6z"/>
<path d="M2435 4959 c-10 -15 3 -25 16 -12 7 7 7 13 1 17 -6 3 -14 1 -17 -5z"/>
<path d="M2095 4950 c-3 -5 -1 -10 4 -10 6 0 11 5 11 10 0 6 -2 10 -4 10 -3 0
-8 -4 -11 -10z"/>
<path d="M2160 4929 c0 -5 5 -7 10 -4 6 3 10 8 10 11 0 2 -4 4 -10 4 -5 0 -10
-5 -10 -11z"/>
<path d="M4585 5290 c3 -5 10 -10 16 -10 5 0 9 5 9 10 0 6 -7 10 -16 10 -8 0
-12 -4 -9 -10z"/>
<path d="M4527 5899 c6 -6 9 -18 6 -25 -3 -8 0 -14 6 -14 18 0 13 37 -6 45
-14 5 -15 3 -6 -6z"/>
<path d="M1858 3239 c-14 -7 -18 -23 -18 -62 0 -47 8 -67 87 -205 48 -84 90
-149 95 -144 4 4 46 68 94 142 82 130 85 137 80 180 -7 50 -26 70 -67 70 -23
0 -33 -11 -72 -76 l-45 -76 -36 68 c-20 38 -42 76 -49 85 -17 22 -48 30 -69
18z"/>
<path d="M2304 3239 c-10 -17 -6 -151 5 -162 5 -5 143 -20 308 -32 164 -13
337 -27 385 -31 113 -9 118 -5 118 92 0 85 -12 104 -68 104 -20 0 -179 9 -352
20 -370 23 -387 24 -396 9z"/>
<path d="M1852 2408 c-7 -7 -12 -39 -12 -72 0 -59 3 -66 86 -203 48 -79 88
-143 90 -143 2 0 44 61 94 137 82 124 90 140 90 185 0 55 -24 88 -65 88 -20 0
-33 -13 -62 -61 -21 -33 -43 -68 -49 -76 -9 -13 -19 -2 -59 63 -26 43 -52 82
-59 86 -17 11 -41 9 -54 -4z"/>
<path d="M2300 2401 c-11 -21 -13 -93 -4 -128 8 -29 39 -40 164 -58 58 -8 168
-24 245 -36 77 -11 181 -26 230 -34 127 -21 172 -20 185 4 11 22 14 120 4 146
-4 9 -18 21 -31 26 -25 9 -710 99 -757 99 -15 0 -30 -8 -36 -19z"/>
<path d="M3385 2070 c-3 -6 1 -7 9 -4 18 7 21 14 7 14 -6 0 -13 -4 -16 -10z"/>
<path d="M3307 2003 c-4 -3 -7 -11 -7 -17 0 -6 5 -5 12 2 6 6 9 14 7 17 -3 3
-9 2 -12 -2z"/>
<path d="M3270 1980 c0 -5 5 -10 11 -10 5 0 7 5 4 10 -3 6 -8 10 -11 10 -2 0
-4 -4 -4 -10z"/>
<path d="M1850 1651 c-5 -11 -10 -43 -10 -71 0 -46 9 -67 77 -189 98 -175 93
-169 137 -141 20 12 34 25 31 30 -8 13 6 41 17 34 6 -4 8 -1 6 7 -3 8 7 30 22
49 104 134 107 260 6 260 -30 0 -38 -6 -72 -59 -21 -33 -42 -57 -46 -55 -4 2
-21 30 -39 61 -18 31 -41 65 -51 75 -24 24 -65 23 -78 -1z"/>
<path d="M2245 1440 c3 -5 8 -10 11 -10 2 0 4 5 4 10 0 6 -5 10 -11 10 -5 0
-7 -4 -4 -10z"/>
<path d="M1769 1003 c-13 -16 -12 -17 4 -4 16 13 21 21 13 21 -2 0 -10 -8 -17
-17z"/>
</g>
</svg>
